<?xml version="1.0" encoding="utf-8"?>
<!-- Generator: Adobe Illustrator 16.0.0, SVG Export Plug-In . SVG Version: 6.00 Build 0)  -->
<!DOCTYPE svg PUBLIC "-//W3C//DTD SVG 1.1//EN" "http://www.w3.org/Graphics/SVG/1.1/DTD/svg11.dtd">
<svg version="1.1" id="レイヤー_1" xmlns="http://www.w3.org/2000/svg" xmlns:xlink="http://www.w3.org/1999/xlink" x="0px"
	 y="0px" width="141.732px" height="56.693px" viewBox="42.52 0 141.732 56.693" enable-background="new 42.52 0 141.732 56.693"
	 xml:space="preserve">
<g>
	<path fill="#FFFFFF" d="M83.482,17.728c3.663-0.225,6.986-0.729,8.679-1.206c1.139-0.308,1.785-0.588,2.616-1.093l0.677,0.645
		c-2.216,1.149-8.987,7.428-8.987,14.323c0,5.578,4.462,7.036,8.618,7.036c8.525,0,8.525-6.055,8.525-8.409
		c0-4.009-0.738-8.409-2.339-11.549l0.985-0.364c1.847,4.4,5.54,7.54,8.802,8.577l-0.462,0.869
		c-2.646-0.841-5.755-3.364-6.894-5.298h-0.031c0.677,2.719,0.954,5.746,0.954,8.045c0,0.477,0,0.925-0.031,1.317
		c-0.246,4.737-3.631,7.708-9.479,7.708c-4.709,0-9.633-1.766-9.633-7.765c0-4.288,2.493-9.306,6.74-13.202
		c-1.693,0.449-4.74,1.009-8.063,1.206c-0.062,0.196-0.216,0.42-0.493,0.448L83.482,17.728z M107.242,19.101
		c-0.954-1.29-2.493-2.859-4.309-4.037l0.615-0.561c1.877,1.261,3.447,2.719,4.432,4.064L107.242,19.101z M110.997,17.419
		c-1.077-1.43-2.524-2.747-4.278-3.924l0.616-0.617c1.877,1.29,3.324,2.551,4.371,4.008L110.997,17.419z"/>
	<path fill="#FFFFFF" d="M113.403,37.769c2.555-6.531,6.278-16.202,7.571-19.453c0.584-1.43,1.262-3.195,1.446-3.728l2,0.533
		c-0.153,0.364-0.615,0.42-1.139,0.393c-1.97,4.709-4.709,11.745-5.878,14.632h0.03c1.908-2.383,5.078-4.289,7.51-4.289
		c2.647,0,3.816,1.542,3.816,4.009c0,0.532-0.092,3.111-0.092,3.7c0,2.326,1.6,3.756,4.063,3.756c3.077,0,6.155-3.168,7.632-8.213
		c0.277,0.168,0.616,0.28,0.893,0.393c-1.569,5.325-4.77,8.717-8.617,8.717c-2.924,0-4.955-1.737-4.955-4.513
		c0-0.561,0.093-3.279,0.093-3.896c0-1.99-1.108-3.139-2.832-3.139c-3.97,0-7.971,5.213-8.648,6.643
		c-0.431,0.925-1.262,2.972-1.908,4.766L113.403,37.769z"/>
</g>
</svg>
