<?xml version="1.0" encoding="utf-8"?>
<!-- Generator: Adobe Illustrator 16.0.0, SVG Export Plug-In . SVG Version: 6.00 Build 0)  -->
<!DOCTYPE svg PUBLIC "-//W3C//DTD SVG 1.1//EN" "http://www.w3.org/Graphics/SVG/1.1/DTD/svg11.dtd">
<svg version="1.1" id="レイヤー_1" xmlns="http://www.w3.org/2000/svg" xmlns:xlink="http://www.w3.org/1999/xlink" x="0px"
	 y="0px" width="141.732px" height="56.693px" viewBox="0 0 141.732 56.693" enable-background="new 0 0 141.732 56.693"
	 xml:space="preserve">
<g>
	<path fill="#FFFFFF" d="M55.784,12.82c-0.05,0.358-0.321,0.507-0.816,0.507c-0.297,1.819-0.791,4.921-1.113,6.74
		c2.225-0.268,2.695-0.328,3.437-0.328c3.412,0,4.647,2.684,4.647,6.949c0,2.476-0.395,5.309-0.989,7.247
		c-0.792,2.685-2.274,3.878-4.104,3.878c-1.038,0-2.299-0.478-4.524-2.715c0.173-0.239,0.272-0.507,0.396-0.805
		c2.2,2.117,3.289,2.564,4.154,2.564c1.632,0,2.719-1.104,3.313-3.162c0.643-2.236,0.964-5.158,0.964-6.979
		c-0.025-3.638-1.038-6.024-3.931-6.024c-0.866,0-1.583,0.089-3.561,0.328c-1.335,6.562-2.867,11.721-5.438,16.492l-0.742-0.416
		c2.645-4.802,4.079-9.724,5.365-15.957c-1.533,0.208-3.362,0.447-4.846,0.716l-0.099-0.954c1.311-0.209,3.363-0.477,5.142-0.716
		c0.396-2.178,0.841-5.01,1.162-7.725L55.784,12.82z M68.565,26.926c-0.964-4.623-3.411-8.291-6.032-10.438l0.569-0.686
		c2.67,2.207,5.291,6.084,6.229,10.737L68.565,26.926z"/>
	<path fill="#FFFFFF" d="M91.561,19.888c-0.075,0.328-0.322,0.507-0.693,0.537c-0.296,2.355-0.643,4.473-1.088,6.382
		c1.459,0.716,2.941,1.521,4.476,2.446l-0.396,0.924c-1.483-0.865-2.918-1.7-4.327-2.386c-1.187,4.652-2.991,7.844-5.81,10.051
		c-0.173-0.238-0.37-0.447-0.593-0.656c2.793-2.236,4.523-5.07,5.686-9.782c-2.967-1.432-5.686-2.386-7.787-2.535
		c-1.731,7.904-3.14,9.872-5.983,9.872c-2.597,0-3.238-2.386-3.238-4.206c0-4.563,3.881-6.531,8.603-6.591
		c0.569-2.625,1.089-5.875,1.509-9.573c-1.112,0.119-5.687,0.477-7.565,0.597c-0.073,0.209-0.247,0.358-0.47,0.417l-0.123-1.342
		c1.705-0.119,6.526-0.477,8.208-0.656c0.271-0.03,0.32-0.149,0.47-0.269l0.89,0.806c-0.124,0.208-0.297,0.298-0.594,0.387
		c-0.42,3.758-0.964,7.009-1.508,9.663c2.151,0.149,4.846,1.074,7.813,2.476c0.444-1.968,0.791-4.265,1.088-6.919L91.561,19.888z
		 M80.212,24.869c-4.179,0.09-7.614,1.938-7.614,5.637c0,1.968,0.79,3.311,2.225,3.311C77.097,33.816,78.432,32.891,80.212,24.869z"
		/>
</g>
</svg>
