<?xml version="1.0" encoding="utf-8"?>
<!-- Generator: Adobe Illustrator 16.0.0, SVG Export Plug-In . SVG Version: 6.00 Build 0)  -->
<!DOCTYPE svg PUBLIC "-//W3C//DTD SVG 1.1//EN" "http://www.w3.org/Graphics/SVG/1.1/DTD/svg11.dtd">
<svg version="1.1" id="レイヤー_1" xmlns="http://www.w3.org/2000/svg" xmlns:xlink="http://www.w3.org/1999/xlink" x="0px"
	 y="0px" width="141.732px" height="56.693px" viewBox="0 0 141.732 56.693" enable-background="new 0 0 141.732 56.693"
	 xml:space="preserve">
<g>
	<path fill="#F7F8F8" d="M55.885,19.831c-0.029,0.117-0.115,0.264-0.201,0.352c-0.402,8.301-1.177,13.581-2.296,15.781
		c-1.09,1.966-2.583,2.054-3.473,2.054c-1.034,0-3.186-0.293-5.281-0.732c0.029-0.178,0.029-0.411,0.029-0.617
		c0-0.322,0-0.615-0.029-0.88c2.296,0.528,4.563,0.733,5.166,0.733c1.119,0,1.693-0.294,2.296-1.467
		c0.976-1.906,1.664-7.04,1.98-13.993h-9.901c-1.493,7.363-4.506,13.171-9.644,17.043c-0.258-0.293-0.775-0.704-1.176-0.968
		c5.022-3.814,7.777-8.83,9.27-16.104H34.36v-1.438h8.553c0.344-2.112,0.574-4.048,0.746-6.571l2.182,0.205
		c-0.029,0.294-0.288,0.44-0.66,0.499c-0.172,2.229-0.374,3.96-0.718,5.867h10.017l0.344-0.118L55.885,19.831z"/>
	<path fill="#F7F8F8" d="M63.917,15.401c3.014,0.969,6.487,2.493,8.61,4.049l-0.803,1.29c-2.096-1.525-5.483-3.051-8.467-4.078
		L63.917,15.401z M64.119,35.907c10.333-3.286,17.162-9.152,20.663-17.308c0.402,0.352,0.89,0.645,1.32,0.851
		c-3.587,8.037-10.647,14.314-20.434,17.572c-0.057,0.233-0.23,0.556-0.373,0.645L64.119,35.907z"/>
</g>
</svg>
