<?xml version="1.0" encoding="utf-8"?>
<!-- Generator: Adobe Illustrator 16.0.0, SVG Export Plug-In . SVG Version: 6.00 Build 0)  -->
<!DOCTYPE svg PUBLIC "-//W3C//DTD SVG 1.1//EN" "http://www.w3.org/Graphics/SVG/1.1/DTD/svg11.dtd">
<svg version="1.1" id="レイヤー_1" xmlns="http://www.w3.org/2000/svg" xmlns:xlink="http://www.w3.org/1999/xlink" x="0px"
	 y="0px" width="56.693px" height="30.47px" viewBox="0 0 56.693 30.47" enable-background="new 0 0 56.693 30.47"
	 xml:space="preserve">
<g>
	<path fill="#DCDDDD" stroke="#DCDDDD" stroke-width="0.25" d="M27.497,9.94c-0.021,0.084-0.084,0.189-0.147,0.252
		c-0.293,5.942-0.86,9.721-1.68,11.296c-0.797,1.407-1.889,1.47-2.54,1.47c-0.756,0-2.331-0.21-3.863-0.525
		c0.021-0.126,0.021-0.294,0.021-0.441c0-0.231,0-0.441-0.021-0.63c1.68,0.378,3.339,0.525,3.779,0.525
		c0.819,0,1.239-0.21,1.68-1.05c0.714-1.365,1.218-5.039,1.448-10.015h-7.243c-1.092,5.27-3.296,9.427-7.055,12.199
		c-0.188-0.21-0.567-0.504-0.86-0.693c3.674-2.729,5.689-6.32,6.781-11.527H11.75V9.772h6.257c0.252-1.512,0.42-2.897,0.546-4.703
		l1.596,0.147c-0.021,0.21-0.21,0.315-0.482,0.357c-0.127,1.596-0.273,2.834-0.525,4.199h7.328l0.252-0.084L27.497,9.94z"/>
	<path fill="#DCDDDD" stroke="#DCDDDD" stroke-width="0.25" d="M33.38,6.77c2.204,0.693,4.745,1.785,6.299,2.897l-0.588,0.924
		C37.559,9.5,35.08,8.408,32.896,7.673L33.38,6.77z M33.527,21.446c7.559-2.352,12.555-6.551,15.117-12.388
		c0.293,0.252,0.65,0.462,0.965,0.609C46.985,15.42,41.82,19.914,34.66,22.244c-0.041,0.168-0.168,0.399-0.272,0.462L33.527,21.446z
		"/>
</g>
</svg>
