<?xml version="1.0" encoding="utf-8"?>
<!-- Generator: Adobe Illustrator 16.0.0, SVG Export Plug-In . SVG Version: 6.00 Build 0)  -->
<!DOCTYPE svg PUBLIC "-//W3C//DTD SVG 1.1//EN" "http://www.w3.org/Graphics/SVG/1.1/DTD/svg11.dtd">
<svg version="1.1" id="レイヤー_1" xmlns="http://www.w3.org/2000/svg" xmlns:xlink="http://www.w3.org/1999/xlink" x="0px"
	 y="0px" width="141.732px" height="56.693px" viewBox="0 0 141.732 56.693" enable-background="new 0 0 141.732 56.693"
	 xml:space="preserve">
<g>
	<path fill="#F7F8F8" d="M65.95,19.831c-0.031,0.117-0.124,0.264-0.217,0.352c-0.434,8.301-1.271,13.581-2.48,15.781
		c-1.178,1.966-2.792,2.054-3.753,2.054c-1.117,0-3.442-0.293-5.707-0.732c0.032-0.178,0.032-0.411,0.032-0.617
		c0-0.322,0-0.615-0.032-0.88c2.481,0.528,4.932,0.733,5.583,0.733c1.209,0,1.829-0.294,2.481-1.467
		c1.054-1.906,1.798-7.04,2.139-13.993H53.298c-1.613,7.363-4.87,13.171-10.421,17.043c-0.278-0.293-0.838-0.704-1.271-0.968
		c5.427-3.814,8.404-8.83,10.017-16.104h-8.932v-1.438h9.243c0.372-2.112,0.62-4.048,0.805-6.571l2.357,0.205
		c-0.031,0.294-0.311,0.44-0.713,0.499c-0.187,2.229-0.404,3.96-0.776,5.867h10.823l0.372-0.118L65.95,19.831z"/>
	<path fill="#F7F8F8" d="M74.63,15.401c3.257,0.969,7.009,2.493,9.304,4.049l-0.867,1.29c-2.266-1.525-5.925-3.051-9.15-4.078
		L74.63,15.401z M74.848,35.907c11.166-3.286,18.545-9.152,22.327-17.308c0.436,0.352,0.963,0.645,1.428,0.851
		c-3.877,8.037-11.505,14.314-22.081,17.572c-0.062,0.233-0.247,0.556-0.402,0.645L74.848,35.907z"/>
</g>
</svg>
