<?xml version="1.0" encoding="utf-8"?>
<!-- Generator: Adobe Illustrator 16.0.0, SVG Export Plug-In . SVG Version: 6.00 Build 0)  -->
<!DOCTYPE svg PUBLIC "-//W3C//DTD SVG 1.1//EN" "http://www.w3.org/Graphics/SVG/1.1/DTD/svg11.dtd">
<svg version="1.1" id="レイヤー_1" xmlns="http://www.w3.org/2000/svg" xmlns:xlink="http://www.w3.org/1999/xlink" x="0px"
	 y="0px" width="141.732px" height="56.693px" viewBox="0 0 141.732 56.693" enable-background="new 0 0 141.732 56.693"
	 xml:space="preserve">
<g>
	<path fill="#F7F8F8" d="M60.342,19.769c-0.034,0.117-0.137,0.262-0.24,0.349c-0.481,8.226-1.41,13.458-2.75,15.638
		c-1.306,1.948-3.094,2.035-4.16,2.035c-1.238,0-3.816-0.291-6.326-0.727c0.035-0.175,0.035-0.407,0.035-0.61
		c0-0.32,0-0.61-0.035-0.872c2.75,0.523,5.466,0.727,6.188,0.727c1.341,0,2.028-0.291,2.75-1.453
		c1.169-1.89,1.994-6.977,2.372-13.866h-11.86c-1.788,7.296-5.397,13.051-11.551,16.888c-0.309-0.29-0.928-0.697-1.409-0.959
		c6.016-3.779,9.316-8.75,11.104-15.958h-9.901v-1.424h10.245c0.413-2.093,0.688-4.011,0.894-6.511l2.613,0.204
		c-0.034,0.291-0.344,0.436-0.791,0.494c-0.207,2.209-0.447,3.924-0.859,5.813h11.998l0.412-0.116L60.342,19.769z"/>
	<path fill="#F7F8F8" d="M69.965,15.38c3.609,0.959,7.77,2.471,10.313,4.012l-0.963,1.279c-2.51-1.512-6.566-3.023-10.141-4.041
		L69.965,15.38z M70.206,35.699c12.376-3.256,20.558-9.069,24.752-17.15c0.48,0.349,1.065,0.64,1.581,0.843
		c-4.297,7.964-12.754,14.185-24.477,17.412c-0.069,0.232-0.275,0.552-0.447,0.64L70.206,35.699z"/>
</g>
</svg>
