<?xml version="1.0" encoding="utf-8"?>
<!-- Generator: Adobe Illustrator 16.0.0, SVG Export Plug-In . SVG Version: 6.00 Build 0)  -->
<!DOCTYPE svg PUBLIC "-//W3C//DTD SVG 1.1//EN" "http://www.w3.org/Graphics/SVG/1.1/DTD/svg11.dtd">
<svg version="1.1" id="レイヤー_1" xmlns="http://www.w3.org/2000/svg" xmlns:xlink="http://www.w3.org/1999/xlink" x="0px"
	 y="0px" width="141.732px" height="56.693px" viewBox="0 0 141.732 56.693" enable-background="new 0 0 141.732 56.693"
	 xml:space="preserve">
<g>
	<path fill="#FFFFFF" d="M67.173,19.332c-0.025,0.094-0.08,0.22-0.16,0.313c-0.348,8.734-1.07,14.388-2.114,16.839
		c-0.882,1.979-2.112,2.105-2.996,2.105c-0.909,0-3.022-0.314-5.003-0.816c0.054-0.314,0.054-0.662,0.054-1.008
		c2.247,0.6,4.414,0.818,4.976,0.818c1.07,0,1.606-0.314,2.222-1.635c0.963-2.229,1.632-7.917,1.953-15.77h-9.926
		c-1.418,8.262-4.387,14.514-9.149,18.536c-0.133-0.221-0.428-0.473-0.669-0.691c4.736-4.115,7.411-9.457,8.91-17.844h-7.999v-1.005
		h8.187c0.347-2.263,0.588-4.431,0.75-7.195l1.444,0.157c-0.027,0.314-0.269,0.44-0.589,0.471c-0.161,2.513-0.374,4.461-0.695,6.567
		h9.952l0.24-0.095L67.173,19.332z"/>
	<path fill="#FFFFFF" d="M72.778,14.682c2.834,1.068,6.072,2.67,8.053,4.367l-0.48,0.848c-1.955-1.664-5.111-3.299-7.947-4.397
		L72.778,14.682z M73.233,36.831c9.791-3.613,16.213-9.928,19.502-18.661c0.242,0.219,0.51,0.407,0.75,0.533
		c-3.344,8.64-9.979,15.331-19.182,18.788c-0.027,0.25-0.188,0.564-0.322,0.66L73.233,36.831z"/>
</g>
</svg>
