<?xml version="1.0" encoding="utf-8"?>
<!-- Generator: Adobe Illustrator 16.0.0, SVG Export Plug-In . SVG Version: 6.00 Build 0)  -->
<!DOCTYPE svg PUBLIC "-//W3C//DTD SVG 1.1//EN" "http://www.w3.org/Graphics/SVG/1.1/DTD/svg11.dtd">
<svg version="1.1" id="レイヤー_1" xmlns="http://www.w3.org/2000/svg" xmlns:xlink="http://www.w3.org/1999/xlink" x="0px"
	 y="0px" width="141.732px" height="56.693px" viewBox="0 0 141.732 56.693" enable-background="new 0 0 141.732 56.693"
	 xml:space="preserve">
<g>
	<path fill="#F7F8F8" d="M61.711,19.886c-0.036,0.087-0.108,0.203-0.217,0.291c-0.469,8.081-1.445,13.313-2.853,15.58
		c-1.192,1.832-2.854,1.948-4.045,1.948c-1.228,0-4.081-0.291-6.754-0.756c0.072-0.291,0.072-0.61,0.072-0.931
		c3.034,0.553,5.959,0.756,6.718,0.756c1.445,0,2.167-0.291,2.998-1.512c1.3-2.063,2.204-7.325,2.637-14.592H46.867
		c-1.915,7.645-5.923,13.43-12.353,17.15c-0.18-0.204-0.578-0.437-0.903-0.64c6.393-3.808,10.005-8.75,12.027-16.511H34.84v-0.93
		h11.052c0.469-2.093,0.794-4.099,1.011-6.657l1.95,0.146c-0.036,0.291-0.361,0.407-0.794,0.436
		c-0.217,2.325-0.506,4.127-0.939,6.075h13.436l0.325-0.087L61.711,19.886z"/>
	<path fill="#F7F8F8" d="M71.795,15.583c3.829,0.988,8.199,2.471,10.872,4.041l-0.65,0.785c-2.637-1.541-6.898-3.052-10.727-4.069
		L71.795,15.583z M72.409,36.077c13.219-3.343,21.887-9.186,26.33-17.267c0.324,0.204,0.686,0.378,1.011,0.494
		c-4.515,7.994-13.472,14.186-25.896,17.383c-0.036,0.232-0.253,0.523-0.433,0.61L72.409,36.077z"/>
</g>
</svg>
