<?xml version="1.0" encoding="utf-8"?>
<!-- Generator: Adobe Illustrator 16.0.0, SVG Export Plug-In . SVG Version: 6.00 Build 0)  -->
<!DOCTYPE svg PUBLIC "-//W3C//DTD SVG 1.1//EN" "http://www.w3.org/Graphics/SVG/1.1/DTD/svg11.dtd">
<svg version="1.1" id="レイヤー_1" xmlns="http://www.w3.org/2000/svg" xmlns:xlink="http://www.w3.org/1999/xlink" x="0px"
	 y="0px" width="56.693px" height="30.47px" viewBox="0 0 56.693 30.47" enable-background="new 0 0 56.693 30.47"
	 xml:space="preserve">
<g>
	<path fill="#DCDDDD" stroke="#DCDDDD" stroke-width="0.5" d="M27.404,11.666c-0.019,0.072-0.072,0.162-0.126,0.216
		c-0.253,5.095-0.738,8.336-1.44,9.687c-0.685,1.207-1.621,1.261-2.179,1.261c-0.648,0-1.999-0.18-3.313-0.45
		c0.019-0.108,0.019-0.252,0.019-0.378c0-0.198,0-0.378-0.019-0.54c1.44,0.324,2.863,0.45,3.241,0.45c0.702,0,1.063-0.18,1.44-0.9
		c0.612-1.17,1.044-4.321,1.242-8.588h-6.212c-0.937,4.519-2.827,8.084-6.05,10.461c-0.162-0.18-0.486-0.432-0.738-0.594
		c3.151-2.34,4.88-5.419,5.815-9.885h-5.186v-0.882h5.366c0.216-1.296,0.36-2.485,0.468-4.033l1.369,0.126
		c-0.019,0.18-0.181,0.27-0.415,0.306c-0.107,1.369-0.233,2.431-0.45,3.601h6.284l0.216-0.072L27.404,11.666z"/>
	<path fill="#DCDDDD" stroke="#DCDDDD" stroke-width="0.5" d="M32.44,8.947c1.891,0.594,4.068,1.53,5.401,2.485l-0.504,0.792
		c-1.314-0.936-3.439-1.873-5.312-2.502L32.44,8.947z M32.566,21.533c6.481-2.017,10.767-5.618,12.964-10.624
		c0.252,0.216,0.558,0.396,0.828,0.522c-2.251,4.933-6.68,8.787-12.82,10.785c-0.036,0.144-0.144,0.342-0.233,0.396L32.566,21.533z"
		/>
</g>
</svg>
