<?xml version="1.0" encoding="utf-8"?>
<!-- Generator: Adobe Illustrator 16.0.0, SVG Export Plug-In . SVG Version: 6.00 Build 0)  -->
<!DOCTYPE svg PUBLIC "-//W3C//DTD SVG 1.1//EN" "http://www.w3.org/Graphics/SVG/1.1/DTD/svg11.dtd">
<svg version="1.1" id="レイヤー_1" xmlns="http://www.w3.org/2000/svg" xmlns:xlink="http://www.w3.org/1999/xlink" x="0px"
	 y="0px" width="56.693px" height="30.47px" viewBox="0 0 56.693 30.47" enable-background="new 0 0 56.693 30.47"
	 xml:space="preserve">
<g>
	<path fill="#DCDDDD" stroke="#DCDDDD" stroke-width="0.75" d="M25.999,10.205c-0.035,0.072-0.071,0.162-0.162,0.234
		c-0.233,5.186-0.738,8.444-1.44,9.723c-0.72,1.243-1.764,1.296-2.358,1.296c-0.702,0-1.98-0.162-3.223-0.414
		c0.036-0.36,0-0.9-0.055-1.278c1.351,0.306,2.737,0.45,3.151,0.45c0.648,0,1.009-0.162,1.387-0.846
		c0.54-1.098,0.99-4.124,1.17-8.174h-5.762c-0.9,4.303-2.683,7.868-5.941,10.317c-0.216-0.234-0.685-0.576-1.026-0.792
		c3.115-2.34,4.753-5.419,5.617-9.524h-4.969V9.989h5.221c0.217-1.278,0.324-2.431,0.415-3.925l1.782,0.144
		c-0.019,0.198-0.18,0.306-0.45,0.324c-0.108,1.314-0.198,2.305-0.396,3.457h5.834l0.288-0.108L25.999,10.205z"/>
	<path fill="#DCDDDD" stroke="#DCDDDD" stroke-width="0.75" d="M31.054,7.414c1.872,0.594,4.033,1.53,5.365,2.449l-0.684,1.134
		c-1.297-0.918-3.422-1.873-5.258-2.503L31.054,7.414z M30.981,19.892c6.392-1.98,10.642-5.563,12.802-10.551
		c0.378,0.306,0.792,0.54,1.171,0.738c-2.251,4.934-6.645,8.769-12.748,10.803c-0.019,0.162-0.126,0.342-0.252,0.414L30.981,19.892z
		"/>
</g>
</svg>
