<?xml version="1.0" encoding="utf-8"?>
<!-- Generator: Adobe Illustrator 16.0.0, SVG Export Plug-In . SVG Version: 6.00 Build 0)  -->
<!DOCTYPE svg PUBLIC "-//W3C//DTD SVG 1.1//EN" "http://www.w3.org/Graphics/SVG/1.1/DTD/svg11.dtd">
<svg version="1.1" id="レイヤー_1" xmlns="http://www.w3.org/2000/svg" xmlns:xlink="http://www.w3.org/1999/xlink" x="0px"
	 y="0px" width="141.732px" height="56.693px" viewBox="42.52 0 141.732 56.693" enable-background="new 42.52 0 141.732 56.693"
	 xml:space="preserve">
<g>
	<path fill="#FFFFFF" d="M86.649,25.563c0,2.165-0.068,4.305-0.364,6.366c0.615,0.876,2.324,3.557,2.734,4.227l-0.547,0.645
		c-0.41-0.8-1.595-2.758-2.347-3.892c-0.478,2.654-1.412,5.18-3.167,7.447c-0.114-0.154-0.342-0.386-0.524-0.489
		c3.189-4.124,3.531-9.2,3.531-14.304v-8.994l1.025,0.103c-0.022,0.129-0.114,0.232-0.342,0.258V25.563z M82.503,28.037
		c0.979-1.34,1.435-3.814,1.526-6.211l0.615,0.129c-0.114,2.397-0.524,5.051-1.618,6.521L82.503,28.037z M89.816,21.156
		c-0.046,0.129-0.183,0.206-0.41,0.206c-0.387,1.546-1.116,3.943-1.708,5.412c-0.023,0-0.547-0.258-0.57-0.258
		c0.592-1.495,1.344-4.046,1.731-5.747L89.816,21.156z M91.889,34.507c-0.546,2.062-1.412,4.407-2.916,5.772l-0.592-0.438
		c1.481-1.289,2.415-3.583,2.894-5.567L91.889,34.507z M103.325,23.167h-3.463c0.547,4.304,1.754,8.195,3.759,9.87
		c-0.159,0.155-0.387,0.413-0.501,0.619c-1.777-1.649-2.893-4.794-3.531-8.505h-0.023c-0.387,2.964-1.503,5.901-4.533,8.351
		c-0.091-0.181-0.319-0.413-0.501-0.542c3.554-2.86,4.352-6.391,4.511-9.793h-3.098v-0.284c-1.071,5.283-3.189,8.891-5.672,10.747
		c-0.114-0.18-0.296-0.438-0.479-0.593c1.367-0.953,2.62-2.499,3.668-4.613c-0.661-0.696-1.731-1.572-2.666-2.19l0.41-0.464
		c0.866,0.567,1.891,1.366,2.551,2.01c0.365-0.851,0.706-1.778,1.002-2.758c-0.684-0.593-1.777-1.34-2.688-1.83l0.364-0.516
		c0.866,0.412,1.868,1.057,2.529,1.624c0.296-1.211,0.547-2.5,0.729-3.866h-3.235c-0.752,2.5-1.731,4.768-2.894,6.34
		c-0.114-0.155-0.364-0.361-0.524-0.49c1.618-2.139,2.894-5.824,3.623-9.716l1.025,0.283c-0.045,0.181-0.182,0.258-0.433,0.258
		c-0.16,0.851-0.365,1.727-0.592,2.552h3.303l0.137-0.052l0.41,0.206c-0.023,0.103-0.068,0.181-0.114,0.206
		c-0.091,0.825-0.228,1.624-0.364,2.371h3.03v-5.824l1.025,0.103c-0.023,0.129-0.114,0.232-0.342,0.258v5.463h3.577V23.167z
		 M94.372,39.919c0-1.341-0.25-3.376-0.638-4.975l0.638-0.103c0.41,1.572,0.684,3.634,0.684,4.948L94.372,39.919z M98.678,39.996
		c-0.25-1.392-0.979-3.479-1.754-5.077l0.592-0.206c0.797,1.572,1.549,3.686,1.823,5.051L98.678,39.996z M103.097,40.356
		c-0.524-1.521-1.754-3.994-2.938-5.798l0.592-0.258c1.185,1.804,2.438,4.227,2.961,5.747L103.097,40.356z M101.344,17.291
		c0.774,1.211,1.549,2.809,1.868,3.866l-0.638,0.309c-0.319-1.083-1.071-2.706-1.8-3.917L101.344,17.291z"/>
	<path fill="#FFFFFF" d="M119.847,22.11c0.318-0.026,0.592-0.052,0.865-0.052c2.916,0,4.83,1.959,4.83,4.845
		c0,3.298-2.074,5-4.875,5c-1.459,0-3.418-0.67-4.785-1.881c0.115-0.207,0.229-0.541,0.297-0.773c1.367,1.211,3.145,1.83,4.51,1.83
		c2.074,0,4.102-1.082,4.102-4.227c0-2.474-1.596-3.969-4.055-3.969c-2.119,0-5.627,1.34-8.384,2.397
		c0.957,3.763,2.484,10.154,3.462,14.304l-0.797,0.206c-0.797-3.892-2.438-10.592-3.372-14.227
		c-1.549,0.593-3.805,1.443-5.058,1.933c-0.022,0.232-0.159,0.464-0.364,0.567l-0.456-1.134c1.549-0.567,4.009-1.495,5.672-2.139
		c-0.752-2.887-1.413-5.361-1.754-6.624l1.435-0.335c0.023,0.335-0.091,0.464-0.501,0.696c0.638,2.5,1.048,4.021,1.526,5.979
		c2.757-1.082,5.445-2.087,7.427-2.371c-0.98-1.443-3.008-3.582-4.42-4.587l0.479-0.593c1.525,1.083,3.486,3.119,4.646,4.82
		L119.847,22.11z"/>
	<path fill="#FFFFFF" d="M128.851,21.517c1.867-0.052,8.359-0.284,11.162-0.413c-0.023-0.438-0.137-4.252-0.137-4.304l1.367,0.051
		c-0.023,0.232-0.16,0.438-0.592,0.516c0,0.825,0.045,2.345,0.09,3.711c2.666-0.103,5.559-0.18,7.586-0.206v0.876
		c-2.141-0.026-4.943,0.051-7.563,0.154c0.045,2.191,0.068,3.505,0.182,5.773c0.068,0.284,0.25,0.954,0.25,2.681
		c0,2.448-0.182,6.778-6.719,9.819l-0.479-0.696c4.191-1.752,6.082-4.433,6.469-7.474h-0.021c-0.594,1.108-1.664,1.959-3.121,1.959
		c-2.029,0-3.668-1.907-3.668-4.382c0-2.577,1.844-4.69,3.918-4.69c1.025,0,2.096,0.438,2.574,1.083
		c0-0.155-0.023-0.284-0.023-0.387c-0.045-0.567-0.045-2.087-0.09-3.66c-3.145,0.103-8.771,0.31-11.164,0.438L128.851,21.517z
		 M140.378,29.713c0-1.804-0.297-3.969-2.734-3.969c-1.938,0-3.234,1.727-3.234,3.866c0,2.139,1.389,3.53,2.984,3.53
		C139.329,33.14,140.378,31.362,140.378,29.713z"/>
</g>
</svg>
