<?xml version="1.0" encoding="utf-8"?>
<!-- Generator: Adobe Illustrator 16.0.0, SVG Export Plug-In . SVG Version: 6.00 Build 0)  -->
<!DOCTYPE svg PUBLIC "-//W3C//DTD SVG 1.1//EN" "http://www.w3.org/Graphics/SVG/1.1/DTD/svg11.dtd">
<svg version="1.1" id="レイヤー_1" xmlns="http://www.w3.org/2000/svg" xmlns:xlink="http://www.w3.org/1999/xlink" x="0px"
	 y="0px" width="226.772px" height="56.693px" viewBox="0 0 226.772 56.693" enable-background="new 0 0 226.772 56.693"
	 xml:space="preserve">
<g>
	<path fill="#FFFFFF" d="M43.159,17.191H54.57l0.089-0.031l0.674,1.012c-0.036,0.092-0.071,0.153-0.142,0.184
		c-1.331,11.532-4.472,17.881-9.92,21.347c-0.088-0.246-0.23-0.613-0.337-0.828c5.395-3.404,8.376-9.354,9.671-20.703H43.159V17.191
		z M56.628,11.456c1.083,0,1.952,1.503,1.952,3.404c0,1.871-0.87,3.374-1.952,3.374c-1.1,0-1.97-1.503-1.97-3.374
		C54.659,12.897,55.564,11.456,56.628,11.456z M58.048,14.86c0-1.411-0.639-2.515-1.42-2.515c-0.798,0-1.438,1.104-1.438,2.515
		c0,1.35,0.639,2.484,1.438,2.484C57.445,17.345,58.048,16.148,58.048,14.86z"/>
	<path fill="#FFFFFF" d="M73.935,23.264c-0.036,0.092-0.089,0.153-0.16,0.184c-1.349,9.201-4.49,13.74-9.778,16.194
		c-0.089-0.307-0.195-0.645-0.302-0.89c5.076-2.208,8.128-6.594,9.423-14.906h-12.44v-0.981h12.688l0.106-0.123L73.935,23.264z
		 M72.479,15.934H62.4v-0.981h10.08V15.934z"/>
	<path fill="#FFFFFF" d="M89.662,16.302c-0.035,0.123-0.088,0.184-0.177,0.215c-0.94,3.834-2.236,7.606-3.709,10.857
		c2.059,2.822,5.2,7.729,6.903,11.042L92.2,39.059c-1.704-3.313-4.756-8.158-6.797-10.918c-1.491,3.312-4.454,8.312-7.223,10.95
		c-0.089-0.215-0.249-0.521-0.408-0.768c5.253-4.999,9.334-14.629,10.949-21.469h-9.21v-0.981h9.476l0.142-0.123L89.662,16.302z"/>
	<path fill="#FFFFFF" d="M110.322,25.779h-6.495c-0.391,6.195-1.491,10.766-5.058,14.2c-0.089-0.245-0.266-0.521-0.408-0.735
		c3.39-3.221,4.507-7.484,4.898-13.465h-7.613v-0.981h7.666c0.106-2.3,0.124-4.815,0.142-7.698
		c-1.988,0.828-4.543,1.595-6.602,2.055c-0.053-0.307-0.124-0.644-0.195-0.92c2.68-0.583,4.951-1.289,6.868-2.147
		c1.775-0.797,3.425-1.687,4.259-2.3l0.515,0.981c-0.053,0.061-0.106,0.061-0.178,0.061c-0.071,0-0.124,0-0.177-0.03
		c-0.976,0.613-2.538,1.472-4.064,2.146l0.461,0.092c-0.018,0.215-0.124,0.368-0.319,0.399c-0.018,2.668-0.036,5.122-0.142,7.36
		h6.441V25.779z"/>
	<path fill="#FFFFFF" d="M115.544,21.639c0.55,1.932,1.171,4.938,1.384,6.686l-0.497,0.215c-0.213-1.718-0.799-4.57-1.366-6.563
		L115.544,21.639z M126.316,21.546c-0.035,0.215-0.16,0.246-0.319,0.246c-1.349,8.894-3.833,14.476-8.323,17.605
		c-0.07-0.185-0.23-0.553-0.319-0.736c4.543-3.159,6.797-8.312,8.181-17.482L126.316,21.546z M119.91,20.074
		c0.372,2.178,0.692,5.122,0.799,7.085l-0.497,0.123c-0.106-1.901-0.408-4.754-0.816-6.993L119.91,20.074z"/>
	<path fill="#FFFFFF" d="M144.296,18.817c-0.053,0.123-0.106,0.246-0.178,0.337c-1.757,9.876-4.756,16.47-9.742,20.856
		c-0.089-0.276-0.23-0.553-0.373-0.767c4.81-4.141,7.88-10.796,9.441-19.783h-7.116c-1.118,3.067-2.449,5.705-4.1,7.974
		c-0.124-0.214-0.266-0.429-0.443-0.644c2.484-3.343,4.419-7.974,5.731-13.525l0.87,0.583c-0.054,0.307-0.284,0.337-0.462,0.307
		c-0.39,1.533-0.798,2.975-1.26,4.324h7.081l0.124-0.092L144.296,18.817z"/>
	<path fill="#FFFFFF" d="M151.345,30.717c-0.94,1.135-1.934,2.208-2.928,3.098c-0.071-0.215-0.23-0.521-0.337-0.736
		c3.158-2.791,6.353-7.269,7.844-11.103l0.993,0.123c-0.035,0.184-0.142,0.276-0.283,0.307c1.774,3.65,5.11,8.005,7.914,10.335
		c-0.106,0.185-0.266,0.521-0.354,0.768c-2.821-2.454-6.176-6.748-7.985-10.49c-1.029,2.331-2.751,5.122-4.738,7.545h9.636v10.028
		h-0.532V39.55h-8.695v1.257h-0.533V30.717z M154.15,19.553c-0.054,0.153-0.16,0.214-0.338,0.214
		c-1.206,2.362-3.052,4.815-4.649,6.379c-0.089-0.153-0.266-0.491-0.39-0.644c1.579-1.472,3.478-3.926,4.667-6.471L154.15,19.553z
		 M149.429,16.731v3.711h-0.532v-4.631h7.045V12.53l0.799,0.123c-0.018,0.153-0.089,0.276-0.267,0.307v2.852h7.116v4.631h-0.532
		v-3.711H149.429z M160.574,31.484h-8.695v7.146h8.695V31.484z M163.217,26.147c-1.047-1.871-3.158-4.662-4.95-6.533l0.337-0.583
		c1.792,1.84,3.922,4.57,4.969,6.41L163.217,26.147z"/>
	<path fill="#FFFFFF" d="M181.997,26.208h-5.82c1.402,2.576,3.939,4.784,6.247,5.735c-0.143,0.215-0.284,0.521-0.373,0.797
		c-0.515-0.245-1.029-0.552-1.544-0.889v8.802h-0.532v-1.196h-4.437v1.381h-0.532v-9.846h4.365
		c-1.526-1.257-2.946-2.944-3.833-4.784h-3.105c-0.977,1.871-2.254,3.466-3.78,4.784h4.365v9.661h-0.532v-1.196h-4.365v1.381h-0.532
		v-8.986c-0.479,0.368-0.994,0.705-1.509,1.012c-0.07-0.184-0.248-0.49-0.372-0.644c2.484-1.503,4.578-3.436,6.051-6.012h-5.749
		v-0.92h6.229c0.515-1.043,0.923-2.178,1.225-3.436l0.745,0.276c-0.018,0.153-0.124,0.245-0.302,0.276
		c-0.267,1.012-0.621,1.994-1.029,2.883h9.121V26.208z M172.893,14.063v8.22h-5.555v-8.22H172.893z M172.361,21.363v-6.38h-4.489
		v6.38H172.361z M172.485,38.538v-6.624h-4.365v6.624H172.485z M180.791,14.063v8.22h-5.608v-8.22H180.791z M175.538,38.538h4.437
		v-6.624h-4.437V38.538z M180.258,21.363v-6.38h-4.543v6.38H180.258z"/>
</g>
</svg>
