<?xml version="1.0" encoding="utf-8"?>
<!-- Generator: Adobe Illustrator 16.0.0, SVG Export Plug-In . SVG Version: 6.00 Build 0)  -->
<!DOCTYPE svg PUBLIC "-//W3C//DTD SVG 1.1//EN" "http://www.w3.org/Graphics/SVG/1.1/DTD/svg11.dtd">
<svg version="1.1" id="レイヤー_1" xmlns="http://www.w3.org/2000/svg" xmlns:xlink="http://www.w3.org/1999/xlink" x="0px"
	 y="0px" width="226.771px" height="56.693px" viewBox="0 0 226.771 56.693" enable-background="new 0 0 226.771 56.693"
	 xml:space="preserve">
<g>
	<path fill="#FFFFFF" d="M35.859,16.634h14.021l0.109-0.029l0.829,0.948c-0.043,0.086-0.087,0.144-0.174,0.172
		c-1.636,10.797-5.495,16.742-12.189,19.987c-0.109-0.23-0.284-0.574-0.415-0.775c6.629-3.188,10.292-8.759,11.884-19.384H35.859
		V16.634z M52.408,11.264c1.33,0,2.398,1.407,2.398,3.188c0,1.752-1.068,3.159-2.398,3.159c-1.352,0-2.42-1.407-2.42-3.159
		C49.988,12.614,51.1,11.264,52.408,11.264z M54.153,14.451c0-1.321-0.785-2.354-1.744-2.354c-0.981,0-1.766,1.034-1.766,2.354
		c0,1.264,0.785,2.326,1.766,2.326C53.411,16.778,54.153,15.657,54.153,14.451z"/>
	<path fill="#FFFFFF" d="M72.585,22.32c-0.043,0.086-0.109,0.144-0.196,0.172c-1.657,8.615-5.517,12.865-12.014,15.163
		c-0.109-0.287-0.24-0.604-0.371-0.833c6.236-2.067,9.986-6.174,11.578-13.957H56.297v-0.919h15.59l0.131-0.115L72.585,22.32z
		 M70.797,15.457H58.412v-0.919h12.385V15.457z"/>
	<path fill="#FFFFFF" d="M89.948,15.801c-0.044,0.115-0.109,0.172-0.218,0.201c-1.156,3.59-2.748,7.122-4.557,10.166
		c2.529,2.642,6.389,7.237,8.482,10.338l-0.589,0.603c-2.093-3.102-5.844-7.639-8.351-10.223c-1.832,3.101-5.473,7.783-8.875,10.252
		c-0.109-0.201-0.305-0.488-0.501-0.719c6.454-4.681,11.469-13.698,13.454-20.102H77.475v-0.919h11.644l0.174-0.115L89.948,15.801z"
		/>
	<path fill="#FFFFFF" d="M114.463,24.675h-7.98c-0.479,5.801-1.832,10.08-6.214,13.296c-0.109-0.229-0.327-0.488-0.501-0.688
		c4.165-3.016,5.539-7.008,6.018-12.607H96.43v-0.919h9.42c0.131-2.153,0.153-4.508,0.174-7.208
		c-2.442,0.775-5.582,1.493-8.111,1.924c-0.065-0.287-0.153-0.603-0.24-0.861c3.292-0.546,6.083-1.207,8.438-2.01
		c2.18-0.747,4.208-1.58,5.233-2.154l0.632,0.919c-0.065,0.057-0.131,0.057-0.218,0.057c-0.087,0-0.153,0-0.218-0.028
		c-1.199,0.574-3.118,1.378-4.993,2.01l0.567,0.086c-0.022,0.201-0.153,0.345-0.393,0.374c-0.021,2.498-0.043,4.795-0.174,6.892
		h7.915V24.675z"/>
	<path fill="#FFFFFF" d="M118.918,20.798c0.676,1.809,1.439,4.624,1.701,6.26l-0.611,0.201c-0.262-1.608-0.98-4.279-1.679-6.146
		L118.918,20.798z M132.154,20.712c-0.044,0.201-0.196,0.23-0.393,0.23c-1.657,8.328-4.71,13.554-10.227,16.484
		c-0.087-0.173-0.283-0.518-0.393-0.689c5.582-2.958,8.352-7.782,10.053-16.369L132.154,20.712z M124.282,19.333
		c0.458,2.039,0.85,4.796,0.98,6.634l-0.61,0.115c-0.131-1.78-0.501-4.451-1.003-6.547L124.282,19.333z"/>
	<path fill="#FFFFFF" d="M150.759,18.156c-0.065,0.115-0.131,0.23-0.218,0.316c-2.158,9.247-5.844,15.421-11.971,19.528
		c-0.109-0.259-0.283-0.518-0.458-0.718c5.909-3.877,9.682-10.109,11.601-18.523h-8.744c-1.374,2.872-3.009,5.341-5.037,7.466
		c-0.152-0.201-0.327-0.402-0.545-0.603c3.053-3.13,5.43-7.466,7.043-12.664l1.068,0.545c-0.065,0.288-0.349,0.316-0.566,0.288
		c-0.48,1.436-0.981,2.785-1.549,4.049h8.7l0.152-0.086L150.759,18.156z"/>
	<path fill="#FFFFFF" d="M157.677,29.299c-1.155,1.063-2.376,2.067-3.598,2.9c-0.087-0.201-0.283-0.488-0.414-0.689
		c3.882-2.613,7.807-6.806,9.638-10.396l1.222,0.115c-0.044,0.172-0.175,0.258-0.35,0.287c2.181,3.417,6.28,7.496,9.726,9.677
		c-0.131,0.173-0.327,0.488-0.437,0.719c-3.467-2.298-7.588-6.318-9.813-9.822c-1.265,2.183-3.379,4.796-5.821,7.065h11.84v9.39
		h-0.654v-0.976h-10.685v1.177h-0.654V29.299z M161.122,18.845c-0.065,0.144-0.196,0.201-0.414,0.201
		c-1.482,2.211-3.75,4.509-5.713,5.973c-0.109-0.144-0.327-0.459-0.479-0.603c1.94-1.378,4.273-3.676,5.734-6.059L161.122,18.845z
		 M155.323,16.203v3.475h-0.654v-4.336h8.656v-3.072l0.981,0.115c-0.021,0.144-0.108,0.258-0.327,0.287v2.67h8.744v4.336h-0.654
		v-3.475H155.323z M169.016,30.016h-10.685v6.69h10.685V30.016z M172.265,25.019c-1.286-1.751-3.881-4.365-6.084-6.117l0.415-0.545
		c2.202,1.723,4.818,4.279,6.105,6.002L172.265,25.019z"/>
	<path fill="#FFFFFF" d="M195.341,25.077h-7.152c1.723,2.412,4.841,4.479,7.676,5.37c-0.175,0.201-0.349,0.488-0.458,0.746
		c-0.632-0.229-1.265-0.517-1.897-0.832v8.241h-0.653v-1.12h-5.451v1.293h-0.654v-9.219h5.363c-1.875-1.177-3.619-2.756-4.709-4.479
		h-3.816c-1.199,1.751-2.769,3.245-4.645,4.479h5.364v9.046h-0.654v-1.12h-5.364v1.293h-0.653v-8.414
		c-0.589,0.345-1.222,0.66-1.854,0.947c-0.088-0.172-0.306-0.459-0.458-0.603c3.053-1.407,5.625-3.217,7.436-5.629h-7.065v-0.861
		h7.654c0.632-0.977,1.134-2.039,1.504-3.217l0.916,0.259c-0.021,0.144-0.152,0.229-0.371,0.258c-0.326,0.948-0.763,1.867-1.265,2.7
		h11.208V25.077z M184.156,13.705v7.696h-6.825v-7.696H184.156z M183.501,20.54v-5.974h-5.517v5.974H183.501z M183.654,36.621
		v-6.202h-5.364v6.202H183.654z M193.859,13.705v7.696h-6.891v-7.696H193.859z M187.405,36.621h5.451v-6.202h-5.451V36.621z
		 M193.204,20.54v-5.974h-5.582v5.974H193.204z"/>
</g>
</svg>
