<?xml version="1.0" encoding="utf-8"?>
<!-- Generator: Adobe Illustrator 16.0.0, SVG Export Plug-In . SVG Version: 6.00 Build 0)  -->
<!DOCTYPE svg PUBLIC "-//W3C//DTD SVG 1.1//EN" "http://www.w3.org/Graphics/SVG/1.1/DTD/svg11.dtd">
<svg version="1.1" id="レイヤー_1" xmlns="http://www.w3.org/2000/svg" xmlns:xlink="http://www.w3.org/1999/xlink" x="0px"
	 y="0px" width="144px" height="30.47px" viewBox="0 0 144 30.47" enable-background="new 0 0 144 30.47" xml:space="preserve">
<g opacity="0.7">
	<path fill="#FFFFFF" d="M14.296,10.401c-0.217,2.666-0.749,4.849-1.596,6.548s-2.248,3.123-4.205,4.271s-4.374,1.869-7.251,2.162
		l-0.36-1.327c3.064-0.293,5.74-1.248,8.029-2.865c2.287-1.617,3.558-4.4,3.81-8.35H0.682V9.54h12.771
		c-0.117-0.24-0.179-0.513-0.185-0.817c0-0.516,0.188-0.952,0.567-1.31c0.377-0.357,0.848-0.542,1.41-0.554
		c0.527,0,0.977,0.179,1.35,0.536c0.371,0.357,0.563,0.809,0.575,1.354c0,0.521-0.188,0.961-0.563,1.318s-0.829,0.542-1.362,0.554
		C14.894,10.621,14.577,10.548,14.296,10.401z M15.21,9.997c0.34,0,0.637-0.12,0.893-0.36c0.254-0.24,0.382-0.533,0.382-0.879
		c0-0.352-0.125-0.653-0.374-0.905s-0.549-0.378-0.9-0.378c-0.34,0-0.636,0.125-0.888,0.374s-0.378,0.543-0.378,0.883
		s0.124,0.636,0.373,0.888S14.864,9.997,15.21,9.997z"/>
	<path fill="#FFFFFF" d="M33.729,13.557c-0.064,1.055-0.158,1.872-0.281,2.452s-0.438,1.39-0.944,2.43
		c-0.508,1.04-1.238,1.916-2.193,2.628s-2.145,1.266-3.568,1.661c-1.424,0.396-3.103,0.619-5.036,0.672l-0.255-1.274
		c3.334-0.076,5.869-0.71,7.607-1.903c1.736-1.192,2.761-3.001,3.071-5.427H19.367v-1.239H33.729z M33.122,10.445H20.07v-1.23
		h13.052V10.445z"/>
	<path fill="#FFFFFF" d="M53.064,22.469l-1.248,0.966c-1.605-1.652-3.8-3.65-6.583-5.994c-2.912,2.801-5.81,4.775-8.692,5.923
		l-0.668-1.116c2.414-0.984,4.817-2.544,7.212-4.68c2.393-2.136,4.07-4.469,5.031-7H38.088V9.347h11.61l0.36,0.325
		c-0.82,2.484-2.136,4.752-3.946,6.803C47.905,17.875,50.223,19.873,53.064,22.469z"/>
	<path fill="#FFFFFF" d="M63.901,15.877c-0.012,1.178-0.123,2.115-0.334,2.813s-0.626,1.39-1.244,2.079s-1.384,1.255-2.298,1.701
		c-0.914,0.445-1.928,0.773-3.041,0.984l-0.536-1.168c0.809-0.146,1.598-0.387,2.369-0.721c0.77-0.334,1.46-0.798,2.069-1.393
		s1.012-1.2,1.208-1.815s0.295-1.441,0.295-2.479h-8.016v-1.274h8.016v-3.56c-1.559,0.182-3.624,0.322-6.196,0.422l-0.22-1.222
		c2.279-0.047,4.547-0.226,6.803-0.536s4.052-0.706,5.388-1.187l0.879,1.151c-1.084,0.41-2.798,0.797-5.142,1.16l-0.009,3.771h6.952
		v1.274H63.901z"/>
	<path fill="#FFFFFF" d="M77.34,17.608l-1.38,0.448c-0.498-1.629-1.207-3.302-2.127-5.019l1.222-0.457
		c0.504,0.879,0.861,1.55,1.072,2.013S76.742,16.062,77.34,17.608z M86.577,12.282c-0.439,3.656-1.531,6.352-3.273,8.086
		c-1.744,1.734-4.145,2.813-7.203,3.235l-0.396-1.169c3.34-0.48,5.695-1.632,7.066-3.454s2.159-4.099,2.364-6.829L86.577,12.282z
		 M81.611,16.765l-1.389,0.466c-0.404-1.43-1.113-3.105-2.127-5.027l1.23-0.483c0.662,1.225,1.075,2.049,1.239,2.474
		S81.078,15.476,81.611,16.765z"/>
	<path fill="#FFFFFF" d="M98.548,8.424c-0.17,0.557-0.413,1.157-0.729,1.802h8.525l-0.07,1.222
		c-0.018,0.352-0.167,1.034-0.448,2.048c-0.182,0.65-0.406,1.304-0.672,1.96c-0.268,0.656-0.617,1.336-1.051,2.039
		s-0.957,1.365-1.568,1.986c-0.613,0.621-1.326,1.188-2.141,1.701s-1.757,0.968-2.826,1.367c-1.069,0.399-2.23,0.721-3.484,0.967
		l-0.519-1.266c3.381-0.656,5.954-1.866,7.722-3.63c1.766-1.764,2.875-4.134,3.326-7.11h-7.488c-0.691,1.137-1.549,2.213-2.57,3.23
		c-1.023,1.017-2.091,1.847-3.204,2.492l-0.826-0.976c1.553-0.984,2.906-2.24,4.061-3.766s1.937-2.952,2.347-4.276L98.548,8.424z"/>
	<path fill="#FFFFFF" d="M124.643,18.566c-1.541-0.416-3.087-1.047-4.636-1.894c-1.551-0.847-2.721-1.686-3.512-2.518
		c-0.826,0.867-1.994,1.705-3.502,2.514c-1.51,0.809-3.107,1.465-4.795,1.969l-0.483-1.011c1.494-0.422,2.988-1.043,4.482-1.863
		s2.584-1.617,3.27-2.391h1.942c0.645,0.709,1.72,1.466,3.226,2.272s3.076,1.399,4.711,1.78L124.643,18.566z M123.104,12.115v-1.978
		h-13.201v2.057h-1.327V9.127h7.075V7.729h1.45v1.397h7.321v2.988H123.104z M109.446,14.69l-0.624-0.958
		c0.756-0.252,1.622-0.659,2.597-1.222c0.977-0.563,1.736-1.104,2.281-1.626l1.23,0.606c-0.574,0.557-1.443,1.169-2.605,1.837
		C111.161,13.996,110.202,14.45,109.446,14.69z M121.03,22.97h-9.149v0.641h-1.371v-5.668h11.918v5.668h-1.397V22.97z
		 M111.881,21.959h9.149v-3.006h-9.149V21.959z M123.307,14.576c-0.785-0.281-1.734-0.746-2.848-1.393s-1.945-1.229-2.496-1.745
		l1.081-0.642c0.475,0.422,1.233,0.921,2.276,1.499s1.975,0.995,2.795,1.252L123.307,14.576z"/>
	<path fill="#FFFFFF" d="M132.254,22.908h-3.085v0.66h-1.266v-4.782c-0.539,0.264-1.055,0.501-1.547,0.712l-0.527-0.923
		c1.793-0.703,3.504-1.72,5.133-3.05h-4.491v-1.046h5.599c0.527-0.574,0.943-1.154,1.248-1.74l1.336,0.352
		c-0.246,0.457-0.557,0.92-0.932,1.389h9v1.046h-5.273c0.855,0.633,1.832,1.192,2.932,1.679c1.098,0.486,2.078,0.82,2.939,1.002
		l-0.659,1.028c-0.434-0.129-0.885-0.281-1.354-0.457v4.791h-1.362v-0.66h-3.155v0.66h-1.327v-5.564h4.078
		c-1.746-0.85-3.038-1.676-3.876-2.479h-2.892c-0.908,0.896-2.033,1.723-3.375,2.479h4.192v5.546h-1.336V22.908z M127.534,12.687
		V8.274h5.968v4.412H127.534z M132.175,9.232h-3.322v2.479h3.322V9.232z M129.169,21.897h3.085v-2.883h-3.085V21.897z
		 M135.611,12.687V8.274h5.985v4.412H135.611z M136.789,21.897h3.155v-2.883h-3.155V21.897z M140.261,9.232h-3.322v2.479h3.322
		V9.232z"/>
</g>
</svg>
